<svg xmlns="http://www.w3.org/2000/svg" viewBox="0 0 64 64">
  <defs>
    <linearGradient id="fl" x1="0" y1="1" x2="0" y2="0">
      <stop offset="0" stop-color="#ff6a1a"/>
      <stop offset="1" stop-color="#ffb24d"/>
    </linearGradient>
    <linearGradient id="core" x1="0" y1="1" x2="0" y2="0">
      <stop offset="0" stop-color="#ffcd82"/>
      <stop offset="1" stop-color="#ffe9c4"/>
    </linearGradient>
    <radialGradient id="glow" cx=".5" cy=".62" r=".55">
      <stop offset="0" stop-color="#3a2210"/>
      <stop offset="1" stop-color="#140e09"/>
    </radialGradient>
  </defs>
  <rect width="64" height="64" rx="14" fill="url(#glow)"/>
  <path fill="url(#fl)" d="M32 8
    C31 16 21.5 22.5 20.5 33
    C19.6 43 24.8 55 32 55
    C39.2 55 44.4 43 43.5 33
    C42.9 26.5 39.4 22.2 36.6 18.2
    C35.6 21.8 33.8 23.4 32.9 22
    C31.4 19.6 32.3 12.5 32 8 Z"/>
  <path fill="url(#core)" d="M32 31
    C34.6 35 37.6 37.4 37.6 42.2
    C37.6 47.6 35.1 51 32 51
    C28.9 51 26.4 47.6 26.4 42.2
    C26.4 37.4 29.4 35 32 31 Z"/>
</svg>
